<?xml version="1.0" encoding="UTF-8"?>
<svg version="1.1" xmlns="http://www.w3.org/2000/svg" width="1898" height="2048">
<path d="M0 0 C626.34 0 1252.68 0 1898 0 C1898 675.84 1898 1351.68 1898 2048 C1271.66 2048 645.32 2048 0 2048 C0 1372.16 0 696.32 0 0 Z " fill="#FEFEFE" transform="translate(0,0)"/>
<path d="M0 0 C0.67194397 -0.00261841 1.34388794 -0.00523682 2.03619385 -0.00793457 C15.1090429 -0.01337269 27.60427193 1.51542504 40.375 4.3125 C41.55400879 4.56870117 41.55400879 4.56870117 42.75683594 4.83007812 C47.33878649 5.85095833 51.85954859 7.02457011 56.375 8.3125 C57.344375 8.58449219 58.31375 8.85648438 59.3125 9.13671875 C86.17639084 17.3824408 111.45839337 32.37000736 132.09375 51.25390625 C133.87875262 52.86468773 135.67777351 54.38626657 137.5625 55.875 C140.50718539 58.42706067 142.95153947 61.13330964 145.46875 64.09765625 C147.4825174 66.43742289 149.58205943 68.68008221 151.6875 70.9375 C166.1059679 87.03649879 178.47242083 107.25802844 185.4375 127.75 C185.69499023 128.49499756 185.95248047 129.23999512 186.21777344 130.00756836 C186.94185334 132.10753772 187.65870106 134.20986749 188.375 136.3125 C188.69855469 137.24320313 189.02210938 138.17390625 189.35546875 139.1328125 C190.95794939 143.8019693 192.2748427 148.49931183 193.375 153.3125 C193.6121875 154.29605469 193.849375 155.27960938 194.09375 156.29296875 C197.56467664 171.37414501 198.56363108 186.08100244 198.625 201.5 C198.63290054 202.50604279 198.63290054 202.50604279 198.64096069 203.53240967 C198.72959424 218.1375214 196.80055599 231.94002052 193.08081055 246.02954102 C192.56072523 248.00674712 192.05989986 249.98817175 191.56054688 251.97070312 C189.47941374 260.07437996 186.83448792 267.69492863 183.375 275.3125 C182.98272217 276.18946533 182.59044434 277.06643066 182.1862793 277.9699707 C172.82525123 298.60718189 161.87087251 316.3136384 146.49609375 333.00390625 C144.36833825 335.31975063 142.30989671 337.68630437 140.25 340.0625 C136.87050027 343.86781669 133.39010671 347.18071676 129.375 350.3125 C128.715 350.3125 128.055 350.3125 127.375 350.3125 C127.375 350.9725 127.375 351.6325 127.375 352.3125 C112.60011531 365.84715715 93.6327948 375.43928022 75.375 383.3125 C74.70049805 383.60350586 74.02599609 383.89451172 73.33105469 384.19433594 C62.04736883 388.9580601 50.34101973 391.81604899 38.375 394.3125 C37.17858887 394.57724121 35.98217773 394.84198242 34.74951172 395.11474609 C24.91496858 397.20493381 15.53191736 397.72249508 5.5 397.5625 C3.99203085 397.54785913 2.48405526 397.53386818 0.97607422 397.52050781 C-3.2249594 397.47646788 -7.42460773 397.39787383 -11.625 397.3125 C-12.60984375 397.29703125 -13.5946875 397.2815625 -14.609375 397.265625 C-28.74893804 397.00215488 -42.91070678 394.86806589 -56.25 390.0625 C-66.16077317 386.55967414 -73.1307031 388.5457409 -82.625 392.3125 C-96.36362921 397.27367166 -111.08532966 399.8920395 -125.62231445 401.05981445 C-127.69383678 401.2086973 -127.69383678 401.2086973 -129.625 402.3125 C-147.95335768 403.59793563 -166.29530767 402.81981007 -184.375 399.625 C-185.08018768 399.50293182 -185.78537537 399.38086365 -186.51193237 399.25509644 C-199.19966471 397.01245893 -211.91120431 393.81096274 -223.5859375 388.2578125 C-225.73270961 387.26256566 -227.90699815 386.44840537 -230.125 385.625 C-242.89597532 380.54044373 -254.5903464 373.4447733 -265.625 365.3125 C-266.72260311 364.51555181 -267.82025989 363.71867753 -268.91796875 362.921875 C-273.84439173 359.29756382 -278.35872273 355.70582941 -282.625 351.3125 C-283.49898438 350.45011719 -284.37296875 349.58773438 -285.2734375 348.69921875 C-297.5735449 336.52246487 -307.90787508 323.66973995 -316.625 308.7109375 C-318.14070658 306.13542046 -319.70508239 303.66106546 -321.375 301.1875 C-324.00882516 297.00753857 -325.61228056 292.48031664 -327.3046875 287.85546875 C-328.66365427 284.20877388 -330.1716485 280.64646047 -331.6875 277.0625 C-334.99202356 269.02852804 -336.82612702 260.78795924 -338.625 252.3125 C-339.04036264 250.60384914 -339.4567287 248.89544116 -339.875 247.1875 C-340.61974507 243.33965047 -341.15905735 240.20348928 -340.625 236.3125 C-336.2185418 231.85002751 -330.29636254 229.59938337 -324.6875 227 C-322.61922201 226.02985938 -320.55151211 225.0585067 -318.484375 224.0859375 C-317.48212891 223.61510742 -316.47988281 223.14427734 -315.44726562 222.65917969 C-310.66081782 220.37526567 -305.96177301 217.92754571 -301.26953125 215.45703125 C-298.625 214.3125 -298.625 214.3125 -294.625 214.3125 C-294.49971924 214.94003174 -294.37443848 215.56756348 -294.24536133 216.21411133 C-287.00880079 252.24594724 -276.89142087 286.05638598 -254.8359375 316.125 C-252.625 319.3125 -252.625 319.3125 -252.625 321.3125 C-251.635 321.6425 -250.645 321.9725 -249.625 322.3125 C-248.0390625 324.140625 -248.0390625 324.140625 -246.25 326.5625 C-238.33995561 336.7117849 -228.96827001 345.66968965 -218.625 353.3125 C-217.85027344 353.89257812 -217.07554687 354.47265625 -216.27734375 355.0703125 C-207.36154402 361.53607946 -197.80460799 367.10065753 -187.625 371.3125 C-186.86316406 371.65152344 -186.10132813 371.99054688 -185.31640625 372.33984375 C-180.15046207 374.54840337 -174.93620225 376.12881365 -169.5 377.5 C-168.84330322 377.66685303 -168.18660645 377.83370605 -167.51000977 378.00561523 C-158.04002875 380.30541709 -148.8417635 380.50662233 -139.125 380.5 C-138.45714478 380.49972809 -137.78928955 380.49945618 -137.10119629 380.49917603 C-124.25956224 380.47508977 -111.79802742 380.15923243 -99.54296875 375.8984375 C-97.625 375.3125 -97.625 375.3125 -94.625 375.3125 C-94.625 374.6525 -94.625 373.9925 -94.625 373.3125 C-95.50800781 373.05726563 -96.39101563 372.80203125 -97.30078125 372.5390625 C-100.67838016 371.29280391 -102.9572458 369.85593814 -105.8125 367.6875 C-106.76898437 366.96820312 -107.72546875 366.24890625 -108.7109375 365.5078125 C-109.67257812 364.78335937 -110.63421875 364.05890625 -111.625 363.3125 C-113.39511374 362.0614812 -115.16594283 360.81147393 -116.9375 359.5625 C-134.03228772 347.08136238 -149.05878 332.32802926 -161.625 315.3125 C-162.57439453 314.05566406 -162.57439453 314.05566406 -163.54296875 312.7734375 C-168.52829348 305.95141418 -172.58918592 298.60334009 -176.60546875 291.18457031 C-177.46851866 289.59983212 -178.35656409 288.0287457 -179.25 286.4609375 C-201.78079957 244.9503883 -203.65021262 188.86550722 -191.6953125 143.80859375 C-189.96271464 138.20270895 -188.10677865 132.82638226 -185.6015625 127.51953125 C-184.56386859 125.17434301 -183.79189655 122.81359732 -183 120.375 C-178.01971533 106.48467479 -169.47660837 93.99962359 -160.625 82.3125 C-160.00882812 81.48363281 -159.39265625 80.65476562 -158.7578125 79.80078125 C-147.86485213 65.41906168 -134.86266938 52.36671244 -120.625 41.3125 C-119.45671088 40.38842573 -118.28875801 39.46392623 -117.12109375 38.5390625 C-115.93561014 37.60846433 -114.74942345 36.67876104 -113.5625 35.75 C-112.72138672 35.08641479 -112.72138672 35.08641479 -111.86328125 34.40942383 C-107.85658593 31.3125 -107.85658593 31.3125 -105.625 31.3125 C-105.625 30.3225 -105.625 29.3325 -105.625 28.3125 C-106.305625 28.27511719 -106.98625 28.23773437 -107.6875 28.19921875 C-113.42028253 27.81042632 -118.78166701 27.06754066 -124.375 25.75 C-141.88942607 22.02888036 -163.21455903 22.70572699 -180.59521484 26.85058594 C-182.89379392 27.37366888 -185.20038676 27.80408443 -187.51953125 28.2265625 C-202.30474835 30.94627941 -216.04205322 34.75143201 -229.625 41.3125 C-230.99838859 41.89961716 -232.37337698 42.48300726 -233.75 43.0625 C-252.17812844 51.32901861 -269.23160769 62.23427389 -284.625 75.3125 C-285.71985472 76.22289365 -286.81492331 77.13303014 -287.91015625 78.04296875 C-298.61359182 87.00566136 -308.69955587 96.55208432 -317.625 107.3125 C-318.07955566 107.85326172 -318.53411133 108.39402344 -319.00244141 108.95117188 C-333.79944877 126.5899886 -346.09424663 145.42231574 -356.7734375 165.796875 C-358.88976714 169.81522242 -361.08396297 173.78640515 -363.30078125 177.75 C-364.91487161 180.8734315 -366.26689161 184.06988463 -367.625 187.3125 C-373.33270487 200.72404695 -373.33270487 200.72404695 -376.125 206.75 C-378.23166767 211.34757032 -380.1241896 216.00836724 -381.97265625 220.71508789 C-384.10886969 226.11341084 -386.38156773 231.44842722 -388.66796875 236.78466797 C-393.40171766 247.84012914 -397.85193272 258.89249103 -401.625 270.3125 C-401.955 271.3025 -402.285 272.2925 -402.625 273.3125 C-402.72607769 275.83019157 -402.77184505 278.32025998 -402.77026367 280.83813477 C-402.77362228 281.60279556 -402.7769809 282.36745636 -402.78044128 283.1552887 C-402.78995341 285.68817769 -402.79189504 288.22100049 -402.79296875 290.75390625 C-402.79618298 292.5192823 -402.79954717 294.28465808 -402.80305481 296.05003357 C-402.80904802 299.75642513 -402.8108947 303.46279338 -402.81030273 307.16918945 C-402.81020152 311.89769154 -402.82381071 316.6260421 -402.84107494 321.3545084 C-402.85224932 325.00500664 -402.85422022 328.655469 -402.85369301 332.30598259 C-402.8548666 334.04773413 -402.85925317 335.78948679 -402.86702538 337.53122139 C-402.92180521 351.08454266 -402.62544092 361.93159109 -394.625 373.3125 C-393.95597656 374.32957031 -393.95597656 374.32957031 -393.2734375 375.3671875 C-388.0168081 382.3666566 -380.02392493 386.09631562 -372.51855469 390.26025391 C-370.18364383 391.5577611 -367.87298781 392.86863431 -365.625 394.3125 C-365.625 394.6425 -365.625 394.9725 -365.625 395.3125 C-406.215 395.3125 -446.805 395.3125 -488.625 395.3125 C-487.4876724 391.90051721 -487.12135232 391.73816328 -484.125 390.11328125 C-483.04774658 389.51326294 -483.04774658 389.51326294 -481.94873047 388.90112305 C-481.18189941 388.48000244 -480.41506836 388.05888184 -479.625 387.625 C-466.71741532 380.22223882 -457.85748178 372.51351994 -453.55899048 357.61862183 C-452.54187568 353.40499393 -452.30331344 349.39197441 -452.27099609 345.07080078 C-452.2578537 344.28899948 -452.2447113 343.50719818 -452.23117065 342.70170593 C-452.19204591 340.13706941 -452.16844896 337.57266591 -452.1484375 335.0078125 C-452.14028645 334.12191311 -452.13213539 333.23601372 -452.12373734 332.32326889 C-452.08214697 327.62763177 -452.05349534 322.93210901 -452.03466797 318.23632812 C-452.01264643 313.43734983 -451.94394148 308.64025389 -451.86432457 303.84193611 C-451.81148391 300.10789057 -451.79523971 296.37427507 -451.78810501 292.63988876 C-451.77849226 290.87392436 -451.75561306 289.10797111 -451.71802902 287.34238052 C-451.46533413 274.67761529 -453.85499773 265.40316562 -459.69182205 254.15543747 C-460.96176498 251.64742127 -462.02303519 249.06998661 -463.06640625 246.4609375 C-466.73638293 237.55054698 -470.67649875 228.7551556 -474.5625 219.9375 C-479.18181659 209.45030077 -483.79739493 198.96336746 -488.29516602 188.42333984 C-490.38152386 183.54278695 -492.50381783 178.67799339 -494.625 173.8125 C-497.39815434 167.44708561 -500.15890528 161.0774702 -502.875 154.6875 C-504.69537737 150.41955641 -506.59357974 146.20139678 -508.5625 142 C-511.88726771 134.86306407 -514.85132008 127.59200261 -517.81542969 120.30029297 C-521.31669191 111.70340606 -524.93567832 103.17042842 -528.80859375 94.734375 C-530.96026032 90.04226722 -533.0441444 85.33991779 -535 80.5625 C-537.44351934 74.64137005 -540.12882829 68.84691088 -542.8671875 63.05859375 C-544.00751229 60.64521784 -545.10935264 58.22451384 -546.1953125 55.78515625 C-549.14492697 49.16782745 -552.29223752 43.12782577 -556.625 37.3125 C-557.03878906 36.72210937 -557.45257812 36.13171875 -557.87890625 35.5234375 C-566.08145198 24.79891502 -579.72208074 18.92016543 -591.625 13.3125 C-591.625 12.6525 -591.625 11.9925 -591.625 11.3125 C-554.995 11.3125 -518.365 11.3125 -480.625 11.3125 C-482.625 16.3125 -482.625 16.3125 -484.9375 19 C-491.24002701 26.42797826 -493.50458873 33.3937659 -493.1875 43.1640625 C-492.46283429 50.11884035 -489.88506499 56.64380197 -487.4296875 63.14306641 C-485.47285387 68.41868038 -483.73697491 73.76100713 -482.25 79.1875 C-480.88988149 83.79206788 -478.99303168 87.98967546 -476.9453125 92.32421875 C-475.48706734 95.62468486 -474.30021913 98.963908 -473.125 102.375 C-471.35038994 107.47630854 -469.29934782 112.19602338 -466.80078125 116.9765625 C-465.25543066 120.04672746 -464.03445327 123.20372666 -462.79296875 126.40625 C-461.02936352 130.79461886 -459.10119182 135.10943702 -457.17431641 139.42822266 C-455.71294558 142.72764027 -454.3352815 146.03052326 -453.08984375 149.41796875 C-451.81740648 152.87166701 -450.33999054 156.17820895 -448.75 159.5 C-446.70355398 163.86441068 -444.85809752 168.228911 -443.1875 172.75 C-441.53042356 177.16190069 -439.66885462 181.31684097 -437.5 185.5 C-431.8762469 196.46385198 -427.35247351 207.94211864 -422.625 219.3125 C-422.17390869 220.39273437 -421.72281738 221.47296875 -421.25805664 222.5859375 C-420.82098389 223.63265625 -420.38391113 224.679375 -419.93359375 225.7578125 C-419.54486084 226.68867676 -419.15612793 227.61954102 -418.75561523 228.57861328 C-417.00662188 232.8077706 -415.31004635 237.05752262 -413.625 241.3125 C-409.26122936 234.76684404 -406.28470764 227.69734993 -403.70288086 220.29296875 C-388.80474696 179.09785694 -368.35714261 140.00760619 -341.625 105.3125 C-340.89667969 104.36632812 -340.16835938 103.42015625 -339.41796875 102.4453125 C-332.37439492 93.58360776 -324.4671005 85.46358448 -316.625 77.3125 C-316.12162109 76.77850586 -315.61824219 76.24451172 -315.09960938 75.69433594 C-313.98035444 74.5283771 -312.80812999 73.41358813 -311.625 72.3125 C-310.965 72.3125 -310.305 72.3125 -309.625 72.3125 C-309.625 71.6525 -309.625 70.9925 -309.625 70.3125 C-307.20979999 67.73046052 -304.34126776 65.56780226 -301.625 63.3125 C-300.77977783 62.6009375 -300.77977783 62.6009375 -299.91748047 61.875 C-290.55810126 54.00790952 -281.00461348 46.77848873 -270.625 40.3125 C-269.96419434 39.8990332 -269.30338867 39.48556641 -268.62255859 39.05957031 C-241.84257007 22.44895526 -213.14279211 11.92017933 -182.125 6.5625 C-181.45629883 6.44672607 -180.78759766 6.33095215 -180.09863281 6.21166992 C-151.89098017 1.69473577 -109.93543672 0.15728164 -83.625 13.3125 C-76.09464114 14.06063011 -69.95209777 13.07531786 -62.90625 10.4609375 C-59.10585242 9.13079835 -55.28436517 8.1380337 -51.375 7.1875 C-50.72563477 7.02926758 -50.07626953 6.87103516 -49.40722656 6.70800781 C-47.4802186 6.24118059 -45.55260812 5.77684285 -43.625 5.3125 C-42.35914063 4.96574219 -41.09328125 4.61898437 -39.7890625 4.26171875 C-34.9963707 3.05887456 -30.16340744 2.66486186 -25.25 2.25 C-23.47104075 2.09602713 -21.69237228 1.93864471 -19.9140625 1.77734375 C-19.13756348 1.711521 -18.36106445 1.64569824 -17.56103516 1.57788086 C-11.68399392 0.77228895 -6.1599463 0.02266257 0 0 Z " fill="#030303" transform="translate(645.625,822.6875)"/>
<path d="M0 0 C6.76249187 -0.12673206 13.52467783 -0.21432235 20.28808594 -0.2746582 C22.5889836 -0.29980906 24.88980132 -0.33393396 27.19042969 -0.37719727 C30.49694533 -0.43782147 33.80240521 -0.46620441 37.109375 -0.48828125 C38.13867126 -0.51408768 39.16796753 -0.5398941 40.22845459 -0.56648254 C47.37483431 -0.56929183 47.37483431 -0.56929183 50.60327148 2.37060547 C55.52767828 11.64098848 58.34073528 21.95608617 61.41333008 31.95678711 C63.0469482 37.22583422 64.89781294 42.3197196 66.98754883 47.42358398 C68.4346971 51.10618725 69.65303262 54.85279403 70.88378906 58.61230469 C72.15959004 62.48435507 73.47822675 66.34038917 74.8046875 70.1953125 C75.05180984 70.91440796 75.29893219 71.63350342 75.55354309 72.37438965 C76.32701764 74.62471168 77.1009997 76.87485876 77.875 79.125 C85.1628908 100.32040606 85.1628908 100.32040606 88.21240234 109.76220703 C89.1844911 112.73505406 90.25528893 115.58902601 91.5 118.4609375 C93.0919263 122.21688861 94.28353805 125.96968052 95.4375 129.875 C97.02239042 135.10346126 98.77418417 140.06903452 101.10546875 145.01953125 C102.71100227 148.57414039 103.81110282 152.29020046 105 156 C105.59511528 157.77328268 106.19035246 159.54652534 106.78759766 161.3190918 C108.95144927 167.74805589 111.00337929 174.19587122 112.91015625 180.70703125 C113.77542026 183.3214311 114.72433183 185.80295138 115.7734375 188.34375 C118.74207413 195.6613535 121.10822031 203.18597307 123.5625 210.6875 C124.51854664 213.60926791 125.47875352 216.52962163 126.44140625 219.44921875 C126.7602755 220.43072151 126.7602755 220.43072151 127.08558655 221.43205261 C128.12814794 224.59299573 129.25758128 227.68092981 130.58203125 230.73242188 C131.61353294 233.10942233 132.51567669 235.35826357 133.24609375 237.83203125 C133.44146729 238.48018799 133.63684082 239.12834473 133.83813477 239.79614258 C134.03592529 240.46154053 134.23371582 241.12693848 134.4375 241.8125 C136.07838618 247.19868571 137.86641155 252.43802937 140.03125 257.640625 C142.40333605 263.41780231 144.449761 269.32348455 146.4140625 275.25 C147.99034548 279.99955705 149.64679599 284.7187105 151.3125 289.4375 C153.6214107 296.00214596 155.87758698 302.5805839 158.0625 309.1875 C158.79899569 311.39892584 159.53664311 313.60996309 160.27490234 315.82080078 C160.75752247 317.27126114 161.23702699 318.72276197 161.71337891 320.17529297 C167.23133788 336.94096268 173.81940473 352.76087582 187 365 C187.5878125 365.59296875 188.175625 366.1859375 188.78125 366.796875 C193.36760176 371.21209424 198.18164404 374.48420225 203.75 377.5 C204.3879248 377.8503833 205.02584961 378.2007666 205.68310547 378.56176758 C209.27541322 380.43038876 211.9767462 381.79486777 216 381 C218.92099004 379.66185011 221.63450292 378.0470865 224.375 376.375 C225.10460938 375.94832031 225.83421875 375.52164062 226.5859375 375.08203125 C238.68160851 367.84622806 244.66671856 359.78921426 248.51936126 346.16311306 C250.15124283 339.64924129 250.2805582 333.40045761 250.25396729 326.70973206 C250.25708727 325.49628284 250.26020725 324.28283362 250.26342177 323.03261322 C250.2699919 319.68590601 250.26766377 316.33942511 250.26144934 312.99273193 C250.25690853 309.37507043 250.26391669 305.75742814 250.26940918 302.13977051 C250.27828775 295.06096995 250.27638795 287.98221187 250.2705839 280.90340967 C250.26606101 275.14808091 250.26545722 269.39276403 250.26763153 263.63743401 C250.26809123 262.40717053 250.26809123 262.40717053 250.26856022 261.15205325 C250.26919969 259.48569536 250.26984812 257.81933748 250.2705054 256.1529796 C250.27620429 240.53867387 250.26965791 224.92439164 250.25890467 209.31008976 C250.24997123 195.92408127 250.25152034 182.53810747 250.26074219 169.15209961 C250.2714555 153.59394047 250.27565325 138.03580193 250.26951766 122.47763962 C250.26888059 120.81722033 250.26825185 119.15680105 250.26763153 117.49638176 C250.26732298 116.67950302 250.26701443 115.86262428 250.26669653 115.02099164 C250.26497265 109.27579015 250.2678781 103.53060176 250.27259064 97.7854023 C250.27821133 90.77924057 250.27665813 83.77312363 250.26602915 76.76696701 C250.26078816 73.19509555 250.25868873 69.62329867 250.26532745 66.05142784 C250.27242608 62.17332731 250.26392572 58.29534776 250.25396729 54.41725159 C250.25842873 53.29690744 250.26289017 52.17656328 250.26748681 51.02226931 C250.20610717 38.67773288 248.19932115 28.16108499 239.91015625 18.5859375 C234.05347124 12.91440559 227.44848928 9.2385164 220.22265625 5.62890625 C217 4 217 4 214 2 C214 1.34 214 0.68 214 0 C254.26 0 294.52 0 336 0 C336 0.66 336 1.32 336 2 C335.50709473 2.25579834 335.01418945 2.51159668 334.50634766 2.77514648 C321.31502019 9.68481615 309.4722982 15.8957835 303 30 C302.649375 30.58136719 302.29875 31.16273438 301.9375 31.76171875 C298.66460656 39.57575183 299.8654344 49.17843502 299.88647461 57.50390625 C299.88675701 59.07156879 299.88659771 60.63923146 299.8860321 62.20689392 C299.8857462 66.44390006 299.89160951 70.68087766 299.89860606 74.9178772 C299.90487401 79.35280206 299.90544612 83.78772764 299.90663147 88.22265625 C299.90973465 96.61243876 299.91793436 105.00220818 299.92798096 113.39198494 C299.93917358 122.94700501 299.94466048 132.50202571 299.94967639 142.0570507 C299.96011784 161.70470777 299.97769763 181.35235306 300 201 C301.72587683 198.49521444 303.4510268 195.98993326 305.17578125 193.484375 C305.89755554 192.43709229 305.89755554 192.43709229 306.63391113 191.36865234 C311.10787209 184.86722232 315.49050217 178.30714575 319.85205078 171.72998047 C321.60526177 169.08785945 323.36531514 166.4503122 325.125 163.8125 C325.76695312 162.84957031 326.40890625 161.88664063 327.0703125 160.89453125 C329.72135417 156.91796875 332.37239583 152.94140625 335.0234375 148.96484375 C335.67570312 147.98644531 336.32796875 147.00804687 337 146 C340.75520833 140.3671875 344.51041667 134.734375 348.265625 129.1015625 C348.85311523 128.22032715 349.44060547 127.3390918 350.04589844 126.43115234 C353.03059896 121.95410156 356.01529948 117.47705078 359 113 C359.48855469 112.26716797 359.97710938 111.53433594 360.48046875 110.77929688 C367.3203125 100.51953125 374.16015625 90.25976562 381 80 C381.66386719 79.00355469 382.32773438 78.00710938 383.01171875 76.98046875 C384.30357197 75.04395793 385.5977156 73.10897241 386.89453125 71.17578125 C388.19950278 69.2276262 389.49877439 67.27564362 390.79296875 65.3203125 C392.42508798 62.86491189 394.07481426 60.42610841 395.73828125 57.9921875 C401.8224755 48.97948427 406.46605997 40.30629897 410 30 C410.37253906 28.95199219 410.74507812 27.90398438 411.12890625 26.82421875 C412.68251081 21.78719589 412.86316564 17.80138915 410.5625 13 C407.59512362 9.52599839 404.33524782 6.65320625 400.828125 3.734375 C400.22484375 3.16203125 399.6215625 2.5896875 399 2 C399 1.34 399 0.68 399 0 C427.38 0 455.76 0 485 0 C484 3 484 3 481.6640625 4.359375 C480.66117188 4.81828125 479.65828125 5.2771875 478.625 5.75 C468.82620892 10.46407561 460.20731778 16.44547053 451.62890625 23.08203125 C449.45355748 24.66909848 447.44781135 25.90629706 445 27 C445 27.66 445 28.32 445 29 C443.38025441 30.71230248 441.7041054 32.37163262 440 34 C431.93381278 41.85391913 425.6228905 50.31439021 419.49658203 59.71484375 C416.65190989 64.05842144 413.75906931 68.37002868 410.875 72.6875 C409.66908554 74.49597021 408.46335129 76.3045606 407.2578125 78.11328125 C403.11523438 84.32714844 398.97265625 90.54101562 394.83007812 96.75488281 C394.41693359 97.37459961 394.00378906 97.99431641 393.578125 98.6328125 C393.15490967 99.26751465 392.73169434 99.9022168 392.2956543 100.55615234 C391.43989646 101.84003097 390.58458182 103.12420513 389.72973633 104.40869141 C387.7039412 107.45151516 385.67182305 110.48953841 383.62109375 113.515625 C382.54021484 115.11664062 382.54021484 115.11664062 381.4375 116.75 C380.79683594 117.69359375 380.15617187 118.6371875 379.49609375 119.609375 C377.86903985 122.00086148 377.86903985 122.00086148 377 125 C377.72960938 124.979375 378.45921875 124.95875 379.2109375 124.9375 C392.80191699 125.20596379 406.45276398 131.53337109 417 140 C417.804375 140.64324219 418.60875 141.28648437 419.4375 141.94921875 C434.47549897 154.71776361 442.97361307 171.39565192 448.67578125 189.90625 C449.86864425 193.73907771 451.37967509 197.32813468 453 201 C455.10923358 206.4775914 457.0247826 212.02390468 458.875 217.59375 C459.22232178 218.63877686 459.56964355 219.68380371 459.92749023 220.76049805 C460.96622858 223.89799386 462.00126811 227.03668425 463.03515625 230.17578125 C463.36966797 231.18833984 463.70417969 232.20089844 464.04882812 233.24414062 C464.73081165 235.30848768 465.41045858 237.37360798 466.08789062 239.43945312 C467.84579585 244.74717083 469.76531146 249.87091433 472 255 C473.196442 258.19086651 474.32024454 261.40566958 475.4375 264.625 C475.89817871 265.94624878 475.89817871 265.94624878 476.36816406 267.29418945 C478.39779055 273.15535211 480.31476798 279.03329768 482.078125 284.98046875 C484.25501929 292.11071995 486.74622411 299.07347201 489.5 306 C492.22660725 312.85819115 494.77347112 319.73942601 496.81640625 326.8359375 C499.85768478 337.18583827 505.01482667 348.54138007 511.64624023 357.1328125 C513 359 513 359 513 361 C513.99 361.33 514.98 361.66 516 362 C517.66666667 363.66666667 519.33333333 365.33333333 521 367 C526.73201995 372.13648541 533.45025016 375.48479274 540.27246094 378.92871094 C540.99594727 379.29770508 541.71943359 379.66669922 542.46484375 380.046875 C543.120896 380.37526367 543.77694824 380.70365234 544.45288086 381.04199219 C546 382 546 382 547 384 C508.72 384 470.44 384 431 384 C432.94182443 380.11635114 434.00101215 378.97198008 437.25 376.375 C444.47587368 370.12653919 449.38158949 362.16231808 450.21484375 352.51171875 C450.55708099 342.83324961 447.78760684 334.78724787 444 326 C443.40775971 324.1319201 442.8361923 322.25724577 442.27734375 320.37890625 C439.95018307 312.73214069 437.38967879 305.17319883 434.79101562 297.61499023 C433.99788095 295.30633187 433.20970812 292.99601902 432.421875 290.68554688 C430.04520113 283.74278006 427.65266507 276.83703366 424.81054688 270.06713867 C423.57989337 266.92860156 422.70164537 263.69893418 421.76782227 260.4621582 C421.03319934 258.10645957 420.1686504 255.88004543 419.21484375 253.60546875 C416.51848807 246.94772436 414.30541447 240.13223037 412.0625 233.3125 C411.64156366 232.03961839 411.22034074 230.76683152 410.79882812 229.49414062 C409.08426843 224.31386705 407.36988205 219.13362445 405.67529297 213.94677734 C405.2406271 212.62465238 404.80589617 211.30254881 404.37109375 209.98046875 C403.98751709 208.80766357 403.60394043 207.6348584 403.20874023 206.42651367 C402.35086413 203.99462292 401.4583707 201.67344948 400.43457031 199.31518555 C399.37348758 196.86310209 398.44808465 194.52351335 397.67578125 191.9765625 C391.72718428 172.94803513 384.64669363 153.03125845 366 143 C362.42592955 144.19135682 362.00462467 145.07867823 359.99609375 148.1640625 C359.4252002 149.03168213 358.85430664 149.89930176 358.26611328 150.79321289 C357.6626709 151.72770264 357.05922852 152.66219238 356.4375 153.625 C355.17321863 155.55341265 353.90889548 157.48179792 352.64453125 159.41015625 C352.02400879 160.36293457 351.40348633 161.31571289 350.76416016 162.29736328 C348.41039232 165.90326003 346.02050068 169.48425958 343.625 173.0625 C342.82265762 174.26545226 342.02056642 175.4685721 341.21875 176.671875 C335.125 185.8125 335.125 185.8125 333.18359375 188.71875 C331.52286062 191.21430604 329.870331 193.71459684 328.22265625 196.21875 C323.3726263 203.56850199 318.46278468 210.82265192 313.1875 217.875 C304.40371357 229.69752705 298.55503083 239.70154642 298.859375 254.6875 C298.87833055 256.54557215 298.89720372 258.40364514 298.91601562 260.26171875 C298.93027588 261.31278809 298.94453613 262.36385742 298.95922852 263.44677734 C299.00540543 267.47108181 299.02331911 271.49501069 299.03710938 275.51953125 C299.06364333 282.80842538 299.11500088 290.09682207 299.18393707 297.38543701 C299.22356245 301.63344136 299.25573273 305.88122686 299.27099609 310.12939453 C299.28625995 314.31007956 299.32080759 318.49021561 299.36830902 322.6706543 C299.38294747 324.23961611 299.39103071 325.80865568 299.39188385 327.37768555 C299.40806092 342.16883776 301.93081007 355.80798101 312.046875 367.17578125 C318.9260044 373.60088811 327.50524552 378.09090944 336 382 C336 382.66 336 383.32 336 384 C257.46 384 178.92 384 98 384 C99.99234595 380.0153081 100.78275873 379.20065087 104.25 376.8125 C109.06911009 373.21174785 112.0638622 369.2080346 115 364 C115.37125 363.39285156 115.7425 362.78570313 116.125 362.16015625 C120.87932771 350.42290972 115.13466454 336.60857841 111.22460938 325.51855469 C109.81049121 321.45550224 108.45571876 317.37496542 107.109375 313.2890625 C98.33328112 286.60434496 98.33328112 286.60434496 88.81469727 260.17871094 C86.82058925 254.84595099 84.90074074 249.48550263 82.9609375 244.1328125 C81.00506886 238.74297602 79.01822455 233.36677177 77 228 C76.26759109 226.00118505 75.53798516 224.00133838 74.8125 222 C74.46832031 221.05125 74.12414063 220.1025 73.76953125 219.125 C73.51558594 218.42375 73.26164062 217.7225 73 217 C71.12337645 223.71847479 70.22994647 230.39012369 69.4375 237.3125 C69.18899353 239.45475323 68.93781517 241.5966987 68.68359375 243.73828125 C68.57587646 244.67712158 68.46815918 245.61596191 68.35717773 246.58325195 C68 249 68 249 67 252 C60.28543918 251.45850316 54.40162308 250.03926909 48 248 C22.53530456 240.53620996 -7.82777929 241.25729038 -31.640625 253.33984375 C-54.0027661 266.03282007 -64.43593194 286.1487781 -72.48828125 309.6484375 C-74.39247497 315.19084608 -76.50037462 320.65248835 -78.60546875 326.12109375 C-79.07376799 327.41281497 -79.5384182 328.70586317 -80 330 C-80.27577881 330.73154297 -80.55155762 331.46308594 -80.83569336 332.21679688 C-83.30413107 339.38130455 -83.35102738 346.10274069 -83.1875 353.625 C-83.17396484 354.81996094 -83.16042969 356.01492188 -83.14648438 357.24609375 C-83.11146292 360.164548 -83.06234993 363.08202348 -83 366 C-82.34 366 -81.68 366 -81 366 C-80.7525 366.78375 -80.505 367.5675 -80.25 368.375 C-78.74967824 371.52567569 -78.04492999 371.54053356 -75 373 C-72.17907529 374.99124097 -69.42213822 377.05818243 -66.65625 379.125 C-64.47270957 380.66632266 -62.42554096 381.90164183 -60 383 C-60 383.33 -60 383.66 -60 384 C-89.37 384 -118.74 384 -149 384 C-147.60276248 381.20552497 -145.69901112 380.57442316 -143 379 C-131.56543241 371.22504643 -121.04393826 363.42447266 -113 352 C-112.278125 351.01644531 -111.55625 350.03289062 -110.8125 349.01953125 C-104.57276785 340.19560063 -101.11775905 330.94962349 -97.86035156 320.70117188 C-96.6629035 316.94164708 -95.41762772 313.19858301 -94.17041016 309.45532227 C-93.57362534 307.66069376 -92.98184016 305.86439189 -92.39599609 304.06616211 C-91.23230574 300.52055392 -90.03796572 297.0869242 -88.54296875 293.6640625 C-85.91058398 287.41298171 -84.05922179 280.89659849 -82.04882812 274.42382812 C-80.2208396 268.60878177 -78.23897899 262.938413 -75.92260742 257.30053711 C-74.49150686 253.73206381 -73.31075825 250.09332927 -72.125 246.4375 C-68.78537602 236.29743204 -65.3647357 226.1855507 -61.92132568 216.08035278 C-61.3173898 214.30697378 -60.71437009 212.53328245 -60.11236572 210.75924683 C-56.65489212 200.57222469 -53.11263591 190.42776635 -49.33056641 180.35604858 C-47.29554648 174.91385955 -45.52254423 169.44661665 -43.921875 163.859375 C-43 161 -43 161 -41.61157227 157.82104492 C-39.93779807 153.95150442 -38.5969423 150.0106718 -37.29296875 146.00390625 C-37.04509109 145.25270004 -36.79721344 144.50149384 -36.54182434 143.7275238 C-35.49482343 140.55432903 -34.45488105 137.37883589 -33.41479492 134.20336914 C-30.45273873 125.17413334 -27.41516838 116.19836105 -24.00541687 107.32679749 C-22.15040266 102.49108425 -20.54646193 97.60681156 -19.0546875 92.6484375 C-17.66925562 89.16946412 -16.57327957 86.77494724 -14 84 C-10.72303659 83.2615615 -7.58759513 83.43273086 -4.25 83.625 C-2.91775391 83.66560547 -2.91775391 83.66560547 -1.55859375 83.70703125 C0.63008395 83.77763376 2.81379568 83.87614473 5 84 C3.9214448 89.89489669 2.01778015 95.49071151 0.1875 101.1875 C-0.15603516 102.27353516 -0.49957031 103.35957031 -0.85351562 104.47851562 C-2.39217928 109.28503529 -3.96426521 114.03474082 -5.89453125 118.69921875 C-9.27892511 126.94406351 -11.86803453 135.49651897 -14.64013672 143.96142578 C-17.59517853 152.97042257 -20.63179626 161.92259077 -24.03536987 170.77359009 C-25.67425344 175.04555446 -27.04464033 179.33699277 -28.296875 183.734375 C-29.03080584 186.09926326 -29.92172174 188.34015845 -30.875 190.625 C-32.68889269 195.01434338 -34.11868274 199.46161183 -35.5 204 C-37.08707587 209.1959197 -38.79166426 214.25565267 -40.88671875 219.2734375 C-42.41981148 223.02816987 -43.83223852 226.82548227 -45.25 230.625 C-45.52062256 231.34945313 -45.79124512 232.07390625 -46.07006836 232.8203125 C-46.71428975 234.54653535 -47.35727738 236.27321856 -48 238 C-47.44054688 237.5875 -46.88109375 237.175 -46.3046875 236.75 C-36.92367608 229.99325866 -27.04231297 223.61730942 -16 220 C-14.80375 219.525625 -13.6075 219.05125 -12.375 218.5625 C14.61500119 208.4939644 43.65278784 206.33104741 72 211 C71.70867187 210.27039062 71.41734375 209.54078125 71.1171875 208.7890625 C67.39242109 199.30144995 64.17179238 189.68326029 61 180 C56.79746454 167.08814647 56.79746454 167.08814647 51.9296875 154.41796875 C50.42624156 150.5077459 49.28627843 146.49175027 48.125 142.46875 C47.22594948 139.69667756 46.2376593 137.06387275 45.13671875 134.37109375 C42.76136607 128.51993631 40.78146272 122.56048681 38.8125 116.5625 C38.02477294 114.18228063 37.23701147 111.80207264 36.44921875 109.421875 C35.8466626 107.5955957 35.8466626 107.5955957 35.23193359 105.73242188 C33.20445898 99.58972829 31.16574337 93.45079563 29.125 87.3125 C28.75608643 86.1975415 28.38717285 85.08258301 28.00708008 83.93383789 C25.57993271 76.62895586 23.0341862 69.41648805 20.0625 62.3125 C18.5686977 58.60607323 17.32494624 54.89287453 16.1875 51.0625 C14.51068545 45.44881649 12.55548853 39.98256722 10.5 34.5 C8.06350718 27.99260082 5.81642813 21.47879161 3.84375 14.8125 C2.83217334 11.4405778 1.69236442 8.12209119 0.515625 4.8046875 C0 3 0 3 0 0 Z " fill="#030303" transform="translate(1296,834)"/>
<path d="M0 0 C8.12365545 2.09554931 15.06309868 9.9635583 21.04296875 15.5234375 C22.61903265 16.95426684 24.2488891 18.32729288 25.91796875 19.6484375 C40.94331487 31.8048664 52.33311259 52.25291441 60.33203125 69.6015625 C60.91173931 70.81949696 61.49256381 72.03690037 62.07421875 73.25390625 C66.28751481 82.11280009 69.91985919 90.84538141 72.5859375 100.3046875 C73.25351058 102.57753764 73.25351058 102.57753764 74.3046875 104.4609375 C87.46104314 131.87418044 88.95373318 174.51399238 83.33203125 203.6015625 C83.19249023 204.33777832 83.05294922 205.07399414 82.90917969 205.83251953 C78.5100016 228.7670881 71.82349378 250.71870203 59.33203125 270.6015625 C58.42904297 272.08462891 58.42904297 272.08462891 57.5078125 273.59765625 C49.34661976 286.48104856 35.20612275 306.66451675 21.33203125 313.6015625 C17.90379952 314.1612738 15.4102884 314.24552163 12.36328125 312.42578125 C10.86652686 311.25574377 9.39783789 310.04944389 7.94921875 308.8203125 C5.57232237 306.80527198 3.12003773 304.94640595 0.61987305 303.08886719 C-12.56577616 293.1553174 -25.01638805 281.0277713 -34.66796875 267.6015625 C-35.23 266.85648438 -35.79203125 266.11140625 -36.37109375 265.34375 C-45.11836271 253.40490993 -51.65616122 240.07327719 -57.66796875 226.6015625 C-58.14423706 225.60491577 -58.14423706 225.60491577 -58.63012695 224.58813477 C-61.53961784 218.37491873 -63.43551173 212.02566306 -65.23046875 205.4140625 C-65.5349292 204.30490479 -65.83938965 203.19574707 -66.15307617 202.05297852 C-71.40581244 182.71174929 -74.07207711 163.99386791 -73.98046875 143.9765625 C-73.97864594 143.1462854 -73.97682312 142.3160083 -73.97494507 141.46057129 C-73.81372906 97.72534611 -59.72989743 52.71235906 -28.29296875 21.0390625 C-27.08907413 19.88856643 -25.88141628 18.74197846 -24.66796875 17.6015625 C-23.88421875 16.7971875 -23.10046875 15.9928125 -22.29296875 15.1640625 C-6.4877848 -0.26480754 -6.4877848 -0.26480754 0 0 Z " fill="#FDFDFD" transform="translate(567.66796875,865.3984375)"/>
<path d="M0 0 C2.14486079 0.19831572 4.29097803 0.38305531 6.4375 0.5625 C32.35938842 3.43358561 55.55432251 14.25656854 76 30 C76.90105469 30.67804687 77.80210937 31.35609375 78.73046875 32.0546875 C84.98912444 36.88695189 90.55849547 42.2711247 96 48 C96.58136719 48.61101563 97.16273438 49.22203125 97.76171875 49.8515625 C123.51401027 78.16037691 140.34342247 114.73085034 148 152 C148.25080322 153.12543213 148.50160645 154.25086426 148.76000977 155.41040039 C150.98402171 166.04995143 151.60001744 176.33245398 151.5625 187.1875 C151.5620166 188.05584473 151.5615332 188.92418945 151.56103516 189.81884766 C151.44732507 219.42137306 144.26648254 249.1033712 129.99560547 275.15869141 C128.97229926 277.05123075 127.99979581 278.9636817 127.03515625 280.88671875 C122.79404408 289.25944068 117.95463549 296.70439935 112 304 C111.5354541 304.57137695 111.0709082 305.14275391 110.59228516 305.73144531 C93.45962202 326.67073846 73.44431935 339.84274828 48 349 C47.24589844 349.29777344 46.49179687 349.59554688 45.71484375 349.90234375 C33.98412231 354.30958676 20.68140365 354.40695375 8.3125 354.375 C7.62188477 354.37545319 6.93126953 354.37590637 6.21972656 354.37637329 C-8.57732599 354.3480191 -22.19782693 352.4245027 -36 347 C-36 346.34 -36 345.68 -36 345 C-34.11511445 343.44648949 -32.22178898 341.99836827 -30.25 340.5625 C-21.52183541 334.03928196 -13.68585788 326.72347219 -6 319 C-5.03126953 318.06607422 -5.03126953 318.06607422 -4.04296875 317.11328125 C4.49614641 308.84335663 4.49614641 308.84335663 11 299 C11.66 299 12.32 299 13 299 C13.26296875 298.27039062 13.5259375 297.54078125 13.796875 296.7890625 C15.01258365 293.97082882 16.42448534 291.83368867 18.25 289.375 C21.99013818 284.14035527 25.05656014 278.7137075 28 273 C28.51836426 271.99380615 29.03672852 270.9876123 29.57080078 269.95092773 C52.69981685 224.34721757 57.80898663 165.88012101 42 117 C41.7426709 116.19256348 41.4853418 115.38512695 41.22021484 114.55322266 C29.67141927 79.04605615 9.3674918 49.07762176 -20 26 C-20.67933594 25.44183594 -21.35867188 24.88367188 -22.05859375 24.30859375 C-30.27521806 17.66161697 -39.5259092 10.7370454 -49 6 C-49 5.34 -49 4.68 -49 4 C-37.30319595 -0.59517302 -11.82901919 -5.9145096 0 0 Z " fill="#FDFDFD" transform="translate(648,845)"/>
<path d="M0 0 C0.87753368 0.00037972 1.75506737 0.00075944 2.65919298 0.00115067 C3.66788535 -0.00084038 4.67657772 -0.00283143 5.71583652 -0.00488281 C6.83740774 -0.00196997 7.95897896 0.00094287 9.11453718 0.00394398 C10.29553824 0.00308955 11.47653929 0.00223513 12.69332826 0.00135481 C15.98614567 -0.00001337 19.27890436 0.00313409 22.5717147 0.00813287 C26.11706087 0.01243408 29.66240508 0.01099119 33.20775312 0.0102306 C39.35519876 0.00970515 45.50263383 0.0128541 51.65007681 0.01846844 C60.53834839 0.02658066 69.42661484 0.02919837 78.31488972 0.03045643 C92.73402458 0.03264739 107.1531538 0.03930866 121.57228559 0.04875904 C135.58270197 0.05793203 149.59311682 0.06501342 163.60353559 0.06926686 C164.46651459 0.06952958 165.32949359 0.0697923 166.21862347 0.07006299 C170.54774942 0.07136798 174.87687537 0.0726317 179.20600134 0.07387489 C215.14491323 0.08424887 251.0838187 0.10186837 287.02272505 0.1241985 C285.40927764 3.35109331 281.95714803 3.69909065 278.71022505 4.8116985 C264.40474655 9.97389576 251.4203328 17.96258846 242.02272505 30.1241985 C241.29311567 30.79322193 240.5635063 31.46224537 239.81178755 32.15154225 C235.89454513 36.0285341 233.17764835 40.78858322 230.27272505 45.4366985 C229.65945356 46.40986012 229.04618208 47.38302174 228.41432661 48.38567311 C219.90746226 61.51823836 219.90746226 61.51823836 213.074727 75.54265553 C212.05217827 78.05192223 210.87473712 80.30031913 209.5188188 82.64372975 C208.78598676 83.91688038 208.78598676 83.91688038 208.03835005 85.21575123 C207.5175688 86.11366383 206.99678755 87.01157643 206.46022505 87.9366985 C205.36480021 89.84012986 204.26975099 91.74377744 203.1750688 93.647636 C202.63607954 94.58317311 202.09709028 95.51871022 201.54176801 96.48259693 C195.53127072 106.93479571 189.71373062 117.48935764 183.95412153 128.08147389 C179.35910493 136.52634988 174.71117181 144.94154572 170.05907148 153.35503346 C165.33571784 161.90019243 160.65826042 170.46846547 156.02272505 179.0616985 C150.51323161 189.26693452 144.90191425 199.38703614 138.89772505 209.3116985 C135.0571039 215.67497965 131.54521741 222.20744719 128.10085005 228.79216725 C123.84029747 236.92477216 119.44528723 244.96060417 114.89772505 252.9366985 C109.21860097 262.90047366 103.76674959 272.97206838 98.39918989 283.10588795 C95.04820233 289.41566725 91.60469777 295.66068244 88.04137129 301.8525005 C84.72783851 307.61558757 81.51980659 313.4350116 78.32210249 319.26311451 C72.30914191 330.22173423 66.23268034 341.13893384 60.00832075 351.97942311 C59.51033979 352.85219898 59.01235883 353.72497486 58.49928755 354.6241985 C58.06696821 355.377011 57.63464887 356.1298235 57.18922895 356.9054485 C55.9524949 359.25777981 54.99333686 361.65202826 54.02272505 364.1241985 C74.21676389 364.08691721 94.41061552 364.02688898 114.60450453 363.94029576 C123.98235803 363.90060437 133.36012881 363.86816184 142.73805708 363.8532024 C150.91851168 363.8401343 159.09878353 363.8130392 167.27913517 363.76958543 C171.60457177 363.74708583 175.92978394 363.73128084 180.25528425 363.73231465 C184.339722 363.73306814 188.42366581 363.71484564 192.50797552 363.68303066 C193.99445995 363.67462129 195.48100039 363.6727195 196.96749777 363.67839581 C212.07704046 363.72833707 225.74446968 361.5025644 238.02272505 352.1241985 C238.85030317 351.50802662 239.6778813 350.89185475 240.53053755 350.257011 C249.49864956 342.58210636 255.10991596 331.77479938 260.6203813 321.538261 C262.82346583 317.44923632 265.15258335 313.45543625 267.58522505 309.4991985 C268.22588911 308.45505787 268.86655317 307.41091725 269.5266313 306.335136 C270.2671977 305.24072193 270.2671977 305.24072193 271.02272505 304.1241985 C271.35272505 304.1241985 271.68272505 304.1241985 272.02272505 304.1241985 C271.57951523 311.50593432 270.67659118 318.75270978 269.58522505 326.0616985 C268.53667051 333.13707428 267.67479503 340.18824488 267.02272505 347.3116985 C265.88602146 359.60230603 264.43753728 371.86249246 263.02272505 384.1241985 C161.38272505 384.1241985 59.74272505 384.1241985 -44.97727495 384.1241985 C-41.46594259 381.49069922 -38.33471454 379.71692053 -34.41477495 377.8116985 C-33.1576655 377.19051348 -31.90116129 376.56810222 -30.6452437 375.944511 C-30.02439898 375.63674732 -29.40355425 375.32898365 -28.76389605 375.01189381 C0.03478424 360.70306605 12.06645171 336.17402098 27.02272505 309.1241985 C29.58359782 304.49829541 32.14616074 299.87333331 34.71022505 295.2491985 C35.33622602 294.11957691 35.962227 292.98995533 36.6071977 291.82610279 C40.80629266 284.26585876 45.08983694 276.76030067 49.44655317 269.28996998 C52.24039198 264.49561116 54.94522141 259.6640978 57.5735063 254.77654225 C59.30101348 251.61487816 61.09818034 248.49512931 62.89772505 245.3741985 C66.38620319 239.31258146 69.70392422 233.17248419 72.96803755 226.98747975 C75.08717561 222.98137902 77.264916 219.0077973 79.43874067 215.03118092 C80.99117597 212.18209845 82.53065703 209.32643722 84.0656938 206.4679485 C89.58382779 196.20468934 95.17677395 186.00486691 101.05739301 175.944511 C109.01829016 162.31559511 116.55563681 148.43840072 124.03053755 134.538261 C129.7390996 123.92923559 135.53787968 113.38791329 141.55446333 102.95037037 C145.82289897 95.5262654 149.93776649 88.02331629 154.01515669 80.49285084 C156.25120861 76.36362631 158.50780966 72.25405399 160.85182661 68.18474537 C163.84028006 62.92566549 166.73065533 57.61065251 169.64772505 52.3116985 C174.18198999 44.07749981 178.72675955 35.84935243 183.29372114 27.6332317 C183.75111173 26.81015774 184.20850233 25.98708378 184.67975324 25.13906819 C185.79397741 23.13405615 186.90830302 21.12910056 188.02272505 19.1241985 C170.28868723 19.16149198 152.55487581 19.2215377 134.82101053 19.30810124 C126.58542996 19.34778029 118.34994341 19.38022898 110.11427778 19.39519459 C102.9296103 19.40826921 95.74515065 19.43538042 88.56060028 19.47881156 C84.76224373 19.50129692 80.96414225 19.51711704 77.16571325 19.51608235 C73.5778198 19.51532798 69.99048742 19.53358391 66.40273947 19.56536633 C64.48409506 19.57771735 62.56535573 19.57086228 60.64668745 19.56305653 C43.26906665 19.76764025 29.13503225 25.18608939 16.33522505 37.1241985 C10.63894928 43.11767126 6.44154923 49.81508165 2.29616255 56.9391399 C0.95228276 59.2450686 -0.41654537 61.53485846 -1.78977495 63.82341725 C-6.44725923 71.20743573 -6.44725923 71.20743573 -9.97727495 79.1241985 C-10.63727495 79.1241985 -11.29727495 79.1241985 -11.97727495 79.1241985 C-10.62229754 63.82729584 -8.86240682 48.60607167 -6.91477495 33.3741985 C-6.5097271 30.18417431 -6.10559861 26.99403556 -5.70202166 23.80382496 C-5.45375164 21.84360888 -5.20450593 19.88351601 -4.95406634 17.92357594 C-4.84047274 17.03104115 -4.72687914 16.13850636 -4.60984331 15.21892506 C-4.50163256 14.36915089 -4.3934218 13.51937672 -4.28193194 12.64385182 C-3.97503269 10.10565396 -3.71384829 7.56525287 -3.45603472 5.02165943 C-2.86125676 0.17972401 -2.86125676 0.17972401 0 0 Z " fill="#040404" transform="translate(872.977274954319,833.8758015036583)"/>
<path d="M0 0 C34.98 0 69.96 0 106 0 C106 0.33 106 0.66 106 1 C104.16836555 1.01213028 104.16836555 1.01213028 102.29972839 1.02450562 C90.80725936 1.10189954 79.3149097 1.18962165 67.82259655 1.28752708 C61.91390022 1.33753062 56.00522213 1.38386031 50.09643555 1.421875 C44.39701987 1.4586765 38.69775528 1.50502245 32.9984684 1.55806351 C30.82113602 1.57663479 28.64377123 1.59173257 26.46639061 1.60334396 C23.42299207 1.6201596 20.37994163 1.64918335 17.33666992 1.68115234 C15.9782901 1.68439262 15.9782901 1.68439262 14.59246826 1.68769836 C13.76375717 1.69886185 12.93504608 1.71002533 12.08122253 1.7215271 C11.36130221 1.72705786 10.64138189 1.73258862 9.89964581 1.73828697 C7.67061953 1.90473325 7.67061953 1.90473325 5 4 C2.3125 3.125 2.3125 3.125 0 2 C0 1.34 0 0.68 0 0 Z " fill="#0F0F0F" transform="translate(54,834)"/>
<path d="M0 0 C0.66 0.99 1.32 1.98 2 3 C0 5 -2 7 -4 9 C-5.175625 10.2375 -5.175625 10.2375 -6.375 11.5 C-8.60442985 13.62326652 -10.19588184 14.85758149 -13 16 C-13 13 -13 13 -10.91796875 10.87890625 C-10.01691406 10.11449219 -9.11585938 9.35007812 -8.1875 8.5625 C-5.05106021 5.8877007 -2.33641601 3.40759677 0 0 Z " fill="#171717" transform="translate(874,1186)"/>
<path d="M0 0 C0.66 0.33 1.32 0.66 2 1 C-6.10546875 9.10546875 -6.10546875 9.10546875 -7.56787109 10.55615234 C-8.96504258 11.96475653 -10.32114649 13.41372318 -11.67578125 14.86328125 C-14 17 -14 17 -17 17 C-11.33333333 11.33333333 -5.66666667 5.66666667 0 0 Z " fill="#DBDBDB" transform="translate(553,873)"/>
<path d="M0 0 C0.33 0 0.66 0 1 0 C0.67 3.96 0.34 7.92 0 12 C-0.99 11.01 -1.98 10.02 -3 9 C-3.99 9.495 -3.99 9.495 -5 10 C-3.85017555 6.10828647 -2.70784225 3.06103907 0 0 Z " fill="#252525" transform="translate(1144,1138)"/>
<path d="M0 0 C3.37503669 1.1858237 5.64722731 2.27573689 8 5 C3.25 6 3.25 6 1 6 C0.34 4.35 -0.32 2.7 -1 1 C-0.67 0.67 -0.34 0.34 0 0 Z " fill="#EFEFEF" transform="translate(1660,976)"/>
<path d="M0 0 C2 2 2 2 2 5 C1.01 5.495 1.01 5.495 0 6 C-0.47001033 9.27555608 -0.47001033 9.27555608 -0.625 13.0625 C-0.69976562 14.35285156 -0.77453125 15.64320313 -0.8515625 16.97265625 C-0.90054688 17.97167969 -0.94953125 18.97070312 -1 20 C-1.33 20 -1.66 20 -2 20 C-2.05425226 17.60385874 -2.09379027 15.20896147 -2.125 12.8125 C-2.14175781 12.13896484 -2.15851563 11.46542969 -2.17578125 10.77148438 C-2.21538674 6.71192193 -1.80020002 3.65001185 0 0 Z " fill="#C9C9C9" transform="translate(154,850)"/>
<path d="M0 0 C1.04449911 3.13349732 0.93423645 3.98968256 0 7 C-0.66 7 -1.32 7 -2 7 C-2.28875 7.639375 -2.5775 8.27875 -2.875 8.9375 C-4 11 -4 11 -6 12 C-4.43358249 7.69235185 -2.31663844 3.93828536 0 0 Z " fill="#272727" transform="translate(922,1104)"/>
<path d="M0 0 C1.85625 0.2784375 1.85625 0.2784375 3.75 0.5625 C6.76279577 0.94711223 9.10010827 1.0874594 12 0 C11.01 1.485 11.01 1.485 10 3 C7.3984375 3.29296875 7.3984375 3.29296875 4.375 3.1875 C2.87066406 3.14689453 2.87066406 3.14689453 1.3359375 3.10546875 C0.56507812 3.07066406 -0.20578125 3.03585937 -1 3 C-0.67 2.01 -0.34 1.02 0 0 Z " fill="#1D1D1D" transform="translate(1504,1214)"/>
<path d="M0 0 C1.32 0.66 2.64 1.32 4 2 C4 2.66 4 3.32 4 4 C3.34 4 2.68 4 2 4 C2 4.66 2 5.32 2 6 C0.68 6 -0.64 6 -2 6 C-1.49396008 3.83125748 -1.00016187 2.00032373 0 0 Z " fill="#DEDEDE" transform="translate(1675,953)"/>
<path d="M0 0 C0.99 0.33 1.98 0.66 3 1 C2.34 2.32 1.68 3.64 1 5 C0.34 5 -0.32 5 -1 5 C-2.37310707 6.29233607 -3.71034824 7.62437146 -5 9 C-3.7508258 5.54074837 -2.32472205 2.85306797 0 0 Z " fill="#DCDCDC" transform="translate(1692,928)"/>
<path d="M0 0 C0.66 0.33 1.32 0.66 2 1 C1.401875 1.556875 0.80375 2.11375 0.1875 2.6875 C-1.9863446 4.98556429 -3.46898083 7.24416549 -5 10 C-5.66 9.01 -6.32 8.02 -7 7 C-4.69 4.69 -2.38 2.38 0 0 Z " fill="#191919" transform="translate(345,885)"/>
<path d="M0 0 C0.66 0.33 1.32 0.66 2 1 C1.6875 2.9375 1.6875 2.9375 1 5 C0.01 5.33 -0.98 5.66 -2 6 C-3.32 4.68 -4.64 3.36 -6 2 C-5.38125 1.855625 -4.7625 1.71125 -4.125 1.5625 C-1.96741678 1.06847775 -1.96741678 1.06847775 0 0 Z " fill="#0F0F0F" transform="translate(596,880)"/>
<path d="M0 0 C1.8871875 0.0309375 1.8871875 0.0309375 3.8125 0.0625 C1.1269406 2.7480594 -1.56371328 3.12299974 -5.1875 4.0625 C-5.1875 3.4025 -5.1875 2.7425 -5.1875 2.0625 C-5.8475 1.7325 -6.5075 1.4025 -7.1875 1.0625 C-4.43671116 0.14557039 -2.82801087 -0.04636083 0 0 Z " fill="#0A0A0A" transform="translate(1154.1875,834.9375)"/>
<path d="M0 0 C2.97 0 5.94 0 9 0 C7.68 1.32 6.36 2.64 5 4 C2.525 3.01 2.525 3.01 0 2 C0 1.34 0 0.68 0 0 Z " fill="#181818" transform="translate(54,834)"/>
<path d="M0 0 C0.66 0.33 1.32 0.66 2 1 C-0.0625 3.5625 -0.0625 3.5625 -3 6 C-6.8125 5.8125 -6.8125 5.8125 -10 5 C-6.76527494 2.84351662 -3.62848922 1.38542316 0 0 Z " fill="#292929" transform="translate(1103,1191)"/>
<path d="M0 0 C0.66 0.33 1.32 0.66 2 1 C0.35 2.65 -1.3 4.3 -3 6 C-4.32 5.34 -5.64 4.68 -7 4 C-1.7265625 0.77734375 -1.7265625 0.77734375 0 0 Z " fill="#2E2E2E" transform="translate(342,1039)"/>
<path d="M0 0 C0.66 0.99 1.32 1.98 2 3 C1.34 4.32 0.68 5.64 0 7 C-1.66666667 7 -3.33333333 7 -5 7 C-3.35 4.69 -1.7 2.38 0 0 Z " fill="#292929" transform="translate(1605,1022)"/>
<path d="M0 0 C0.66 0.33 1.32 0.66 2 1 C1.67 1.99 1.34 2.98 1 4 C0.34 4 -0.32 4 -1 4 C-1.33 4.99 -1.66 5.98 -2 7 C-3.32 7.33 -4.64 7.66 -6 8 C-4.02 5.36 -2.04 2.72 0 0 Z " fill="#DBDBDB" transform="translate(535,891)"/>
<path d="M0 0 C0.66 0.33 1.32 0.66 2 1 C0.68799596 2.35432675 -0.64631404 3.68733482 -2 5 C-2.33 5 -2.66 5 -3 5 C-3.33 6.98 -3.66 8.96 -4 11 C-4.33 11 -4.66 11 -5 11 C-5.3125 7.75 -5.3125 7.75 -5 4 C-2.5 1.5625 -2.5 1.5625 0 0 Z " fill="#464646" transform="translate(310,1055)"/>
<path d="M0 0 C0.66 0.33 1.32 0.66 2 1 C-2.30769231 6.78461538 -2.30769231 6.78461538 -5.8125 7.875 C-6.8953125 7.936875 -6.8953125 7.936875 -8 8 C-5.58443874 4.80800833 -3.31996462 2.25283313 0 0 Z " fill="#D5D5D5" transform="translate(368,891)"/>
<path d="M0 0 C0.66 0.33 1.32 0.66 2 1 C1.2884375 1.6496875 1.2884375 1.6496875 0.5625 2.3125 C-1.23686957 4.02309613 -1.23686957 4.02309613 -2 7 C-3.32 6.34 -4.64 5.68 -6 5 C-5.195625 4.360625 -4.39125 3.72125 -3.5625 3.0625 C-1.7249496 1.59396498 -1.7249496 1.59396498 0 0 Z " fill="#191919" transform="translate(1163,1206)"/>
<path d="M0 0 C0.99 0.33 1.98 0.66 3 1 C2.67 1.33 2.34 1.66 2 2 C2.66 2.66 3.32 3.32 4 4 C0.25 7 0.25 7 -2 7 C-1.34 4.69 -0.68 2.38 0 0 Z " fill="#C9C9C9" transform="translate(1250,1065)"/>
<path d="M0 0 C1.5625 1.125 1.5625 1.125 3 3 C2.6875 6.1875 2.6875 6.1875 2 9 C0.79371992 6.66785852 -0.1654738 4.50357861 -1 2 C-0.67 1.34 -0.34 0.68 0 0 Z " fill="#EAEAEA" transform="translate(827,937)"/>
<path d="M0 0 C0.66 0 1.32 0 2 0 C0.44499019 3.81684226 -2.03595495 6.19195732 -5 9 C-3.7580393 5.56072421 -2.44259716 2.74792181 0 0 Z " fill="#DBDBDB" transform="translate(1714,895)"/>
<path d="M0 0 C1.32 0.66 2.64 1.32 4 2 C4 3.32 4 4.64 4 6 C2.35 4.35 0.7 2.7 -1 1 C-0.67 0.67 -0.34 0.34 0 0 Z " fill="#D9D9D9" transform="translate(591,884)"/>
<path d="M0 0 C0.66 0.33 1.32 0.66 2 1 C-0.36292656 3.52588702 -1.66462511 4.88820837 -5 6 C-5.66 5.34 -6.32 4.68 -7 4 C-1.7265625 0.77734375 -1.7265625 0.77734375 0 0 Z " fill="#E0E0E0" transform="translate(745,1193)"/>
<path d="M0 0 C0.8125 1.6875 0.8125 1.6875 1 4 C-1.4375 6.75 -1.4375 6.75 -4 9 C-4 5.00095031 -2.27413033 3.19799578 0 0 Z " fill="#D3D3D3" transform="translate(1642,1002)"/>
<path d="M0 0 C0.66 0.66 1.32 1.32 2 2 C1.01 3.98 0.02 5.96 -1 8 C-1.99 8 -2.98 8 -4 8 C-2.87548273 5.0280615 -1.77706209 2.66559313 0 0 Z " fill="#D8D8D8" transform="translate(303,962)"/>
<path d="M0 0 C0 0.33 0 0.66 0 1 C-5.16044765 2.512545 -8.65998179 3.33500455 -14 2 C-14 1.67 -14 1.34 -14 1 C-9.23692563 0.04738513 -4.8333472 -0.08333357 0 0 Z " fill="#B2B2B2" transform="translate(480,847)"/>
<path d="M0 0 C0.99 0.33 1.98 0.66 3 1 C1.8125 2.5 1.8125 2.5 0 4 C-2.6875 4.1875 -2.6875 4.1875 -5 4 C-3.36587557 2.29159719 -2.13093906 1.06546953 0 0 Z " fill="#D5D5D5" transform="translate(1141,842)"/>
</svg>
